HIERARCHY
ROOT Hips
{
	OFFSET -3.958830 18.904000 13.208200
	CHANNELS 6 Xposition Yposition Zposition Zrotation Yrotation Xrotation 
	JOINT LHipJoint
	{
		OFFSET 0.000000 0.000000 0.000000
		CHANNELS 3 Zrotation Yrotation Xrotation
		JOINT LeftUpLeg
		{
			OFFSET 1.800000 -1.400000 0.085000
			CHANNELS 3 Zrotation Yrotation Xrotation
			JOINT LeftLeg
			{
				OFFSET 2.215000 -6.000000 0.000000
				CHANNELS 3 Zrotation Yrotation Xrotation
				JOINT LeftFoot
				{
					OFFSET 2.500000 -6.900000 0.000000
					CHANNELS 3 Zrotation Yrotation Xrotation
					JOINT LeftToeBase
					{
						OFFSET 0.200000 -0.500000 1.950000
						CHANNELS 3 Zrotation Yrotation Xrotation
						End Site
						{
							OFFSET 0.000000 0.000000 0.000000
						}
					}
				}
			}
		}
	}
	JOINT RHipJoint
	{
		OFFSET 0.000000 0.000000 0.000000
		CHANNELS 3 Zrotation Yrotation Xrotation
		JOINT RightUpLeg
		{
			OFFSET -1.800000 -1.400000 0.085000
			CHANNELS 3 Zrotation Yrotation Xrotation
			JOINT RightLeg
			{
				OFFSET -2.215000 -6.000000 0.000000
				CHANNELS 3 Zrotation Yrotation Xrotation
				JOINT RightFoot
				{
					OFFSET -2.500000 -6.900000 0.000000
					CHANNELS 3 Zrotation Yrotation Xrotation
					JOINT RightToeBase
					{
						OFFSET -0.200000 -0.500000 1.950000
						CHANNELS 3 Zrotation Yrotation Xrotation
						End Site
						{
							OFFSET 0.000000 0.000000 0.000000
						}
					}
				}
			}
		}
	}
	JOINT LowerBack
	{
		OFFSET 0.000000 0.000000 0.000000
		CHANNELS 3 Zrotation Yrotation Xrotation
		JOINT Spine
		{
			OFFSET -0.087000 1.940000 -0.288900
			CHANNELS 3 Zrotation Yrotation Xrotation
			JOINT Spine1
			{
				OFFSET 0.000000 1.950000 0.060000
				CHANNELS 3 Zrotation Yrotation Xrotation
				JOINT Neck
				{
					OFFSET 0.000000 0.000000 0.000000
					CHANNELS 3 Zrotation Yrotation Xrotation
					JOINT Neck1
					{
						OFFSET 0.000000 1.600000 0.340000
						CHANNELS 3 Zrotation Yrotation Xrotation
						JOINT Head
						{
							OFFSET 0.000000 1.667000 -0.240000
							CHANNELS 3 Zrotation Yrotation Xrotation
							End Site
							{
								OFFSET 0.000000 0.000000 0.000000
							}
						}
					}
				}
				JOINT LeftShoulder
				{
					OFFSET 0.000000 0.000000 0.000000
					CHANNELS 3 Zrotation Yrotation Xrotation
					JOINT LeftArm
					{
						OFFSET 2.700000 1.550000 -0.730000
						CHANNELS 3 Zrotation Yrotation Xrotation
						JOINT LeftForeArm
						{
							OFFSET 5.450000 0.000000 0.000000
							CHANNELS 3 Zrotation Yrotation Xrotation
							JOINT LeftHand
							{
								OFFSET 3.450000 0.000000 0.000000
								CHANNELS 3 Zrotation Yrotation Xrotation
								JOINT LeftHandIndex1
								{
									OFFSET 0.750000 0.000000 0.000000
									CHANNELS 3 Zrotation Yrotation Xrotation
									End Site
									{
										OFFSET 0.000000 0.000000 0.000000
									}
								}
							}
						}
					}
				}
				JOINT RightShoulder
				{
					OFFSET 0.000000 0.000000 0.000000
					CHANNELS 3 Zrotation Yrotation Xrotation
					JOINT RightArm
					{
						OFFSET -2.700000 1.550000 -0.730000
						CHANNELS 3 Zrotation Yrotation Xrotation
						JOINT RightForeArm
						{
							OFFSET -5.450000 0.000000 0.000000
							CHANNELS 3 Zrotation Yrotation Xrotation
							JOINT RightHand
							{
								OFFSET -3.450000 0.000000 0.000000
								CHANNELS 3 Zrotation Yrotation Xrotation
								JOINT RightHandIndex1
								{
									OFFSET -0.750000 0.000000 0.000000
									CHANNELS 3 Zrotation Yrotation Xrotation
									End Site
									{
										OFFSET 0.000000 0.000000 0.000000
									}
								}
							}
						}
					}
				}
			}
		}
	}
}
MOTION
Frames: 4
Frame Time: 0.016667
0.140290 16.973220 -0.102660 -3.646515 -1.151719 5.498712 -14.838272 12.259953 3.699764 28.787751 -0.863723 -7.786049 -2.949246 4.475180 -3.507587 0.248985 5.441561 2.875881 0.115880 -0.066580 -0.100060 18.710690 -9.868006 3.077654 -1.085904 -1.506957 -0.623446 11.863252 -4.151904 -2.043816 -0.504952 -4.167207 3.170880 -0.013510 0.408600 0.112690 -4.674110 -1.821746 -8.117095 23.620673 -0.426883 0.216506 -14.555466 1.490124 -2.343268 2.919631 -6.574184 -14.583065 -16.445292 7.423675 43.150262 2.827800 -0.269640 4.061190 -14.038888 -8.962150 4.587969 2.088814 4.111917 0.341129 7.674251 -1.447039 -0.355264 -4.047109 2.728454 0.230290 0.188000 -0.149870 0.244030 7.490184 15.664587 11.083348 -1.897437 3.325970 -0.099976 -3.353767 -9.088925 0.158665 2.860934 -1.148502 -0.152360 0.208100 0.035910 -0.002330 
0.146420 16.974230 -0.100000 -3.723836 -1.166245 5.570100 -14.837038 12.256153 3.709046 28.849834 -0.874832 -7.798310 -2.852176 4.460362 -3.577674 0.251071 5.436465 2.874570 0.117410 -0.058730 -0.099430 18.711461 -9.863794 3.085319 -1.006535 -1.530804 -0.595075 11.795447 -4.117145 -2.198518 -0.507202 -4.163542 3.170860 -0.009810 0.403890 0.109710 -4.677100 -1.816952 -8.129600 23.746088 -0.372176 0.164596 -14.597546 1.513535 -2.643219 2.949554 -6.534384 -14.496329 -16.315235 7.436101 43.410620 2.645360 -0.139040 4.036390 -13.836708 -8.604720 4.460256 1.756421 4.136363 0.331929 7.698008 -1.784233 -0.344986 -4.044030 2.728824 0.227450 0.186720 -0.147520 0.243190 7.177816 15.377706 11.017468 -1.286420 3.548397 -0.052335 -3.579928 -9.108452 0.190410 2.863314 -1.152154 -0.150460 0.208210 0.034430 -0.001850 
0.149500 16.972510 -0.098860 -3.598529 -1.191893 5.627554 -14.839649 12.234244 3.726020 28.934564 -0.859554 -7.833681 -3.033354 4.479625 -3.635554 0.262690 5.451567 2.867070 0.118590 -0.061200 -0.090850 18.711739 -9.854814 3.079449 -1.249654 -1.515899 -0.584945 11.812491 -4.103621 -2.339951 -0.510499 -4.169378 3.171040 -0.016750 0.394450 0.113700 -4.675758 -1.805312 -8.139700 23.394115 -0.244595 0.051236 -14.360232 1.530942 -2.615993 2.975527 -6.381155 -14.455747 -16.086761 7.242531 43.627236 2.406390 -0.138110 4.163240 -14.177454 -8.694111 4.467165 2.158910 4.548816 0.323833 7.425687 -2.079978 -0.344961 -4.031025 2.735592 0.228510 0.184800 -0.141650 0.240540 7.461106 15.307798 10.990176 -1.548107 3.222409 -0.088665 -3.585052 -8.829386 0.177608 2.859611 -1.153161 -0.143810 0.199270 0.029290 -0.004450 
0.147480 16.967810 -0.100420 -3.191409 -1.201519 5.634180 -14.847089 12.203852 3.737523 28.966027 -0.809747 -7.867459 -3.421162 4.524817 -3.642622 0.269762 5.476924 2.861015 0.113290 -0.077080 -0.081860 18.708423 -9.848824 3.059114 -1.927178 -1.447466 -0.613870 12.001088 -4.137892 -2.389262 -0.514427 -4.191340 3.172168 -0.033340 0.387040 0.115570 -4.663951 -1.785588 -8.140712 22.400091 -0.038458 -0.091629 -13.740985 1.529833 -2.220929 2.988775 -6.123146 -14.413270 -15.783577 6.844902 43.734822 2.007430 -0.204280 4.341730 -15.270286 -9.344393 4.614812 3.519274 5.427445 0.337884 6.881744 -2.362002 -0.356567 -4.004106 2.741815 0.239530 0.183000 -0.136740 0.237110 8.573666 15.551278 10.940958 -3.201195 2.366806 -0.226161 -2.940952 -8.651673 0.086961 2.847541 -1.143086 -0.143530 0.194270 0.026560 -0.011890 
